<svg viewBox="0 0 1000 1000" fill="none" xmlns="http://www.w3.org/2000/svg">
    <path d="M664.006 471.455L522.113 340.7C642.814 232.965 567.261 71.8232 500 71.8232C443.823 71.8232 407.862 162.082 407.862 200.756C407.862 261.529 430.712 321.343 500 380.295L664.928 521.16C736.796 586.537 793 645.469 793 767.937C793 996.298 548.833 1000 500 1000C451.167 1000 207 955.801 207 767.956C207 617.68 292.996 545.734 335.994 528.545L477.887 659.3C357.186 767.035 432.739 928.177 500 928.177C556.177 928.177 592.138 837.919 592.138 799.245C592.138 738.471 569.288 678.657 500 619.705L335.072 478.84C263.204 413.463 207 354.531 207 232.063C207 3.70212 451.167 0 500 0C548.833 0 793 44.1989 793 232.044C793 382.32 707.004 454.266 664.006 471.455Z" />
    <style>
        path { fill: #000; }
        @media (prefers-color-scheme: dark) {
            path { fill: #FFF; }
        }
    </style>
</svg>